<svg width="60" height="52" viewBox="0 0 60 52" fill="none" xmlns="http://www.w3.org/2000/svg">
<path d="M31.224 0.426941C30.8691 0.150259 30.432 0 29.982 0C29.532 0 29.0949 0.150259 28.74 0.426941L0 22.8369L2.486 25.9809L6 23.2409V47.9989C6.00211 49.0592 6.42422 50.0753 7.17391 50.825C7.9236 51.5747 8.93978 51.9968 10 51.9989H50C51.0602 51.9968 52.0764 51.5747 52.8261 50.825C53.5758 50.0753 53.9979 49.0592 54 47.9989V23.2589L57.514 25.9989L60 22.8549L31.224 0.426941ZM34 47.9989H26V31.9989H34V47.9989ZM38 47.9989V31.9989C38 30.9381 37.5786 29.9207 36.8284 29.1705C36.0783 28.4204 35.0609 27.9989 34 27.9989H26C24.9391 27.9989 23.9217 28.4204 23.1716 29.1705C22.4214 29.9207 22 30.9381 22 31.9989V47.9989H10V20.1229L30 4.54294L50 20.1429V47.9989H38Z" fill="#333333"/>
</svg>
