<svg width="200" height="162" viewBox="0 0 200 162" fill="none" xmlns="http://www.w3.org/2000/svg">
<path d="M85.6554 29.8916V48.2057H83.8812L81.6 33.8634H69.6871V73.9484L78.2416 75.4194V77.5524H55.7465V75.64C57.2251 75.1987 58.6614 74.831 60.0554 74.5368C61.4917 74.2426 62.9069 74.0219 64.301 73.8748L64.8713 33.8634H52.8317L50.5505 48.2057H48.7762V29.8916H85.6554Z" fill="#A08868"/>
<path d="M147.671 29.8916V44.3811H145.834L143.679 33.8634H124.859L126.95 31.4362V52.3245H137.723L139.624 46.0727H141.208V62.5481H139.624L137.659 56.2963H126.95V74.0219L135.505 75.4194V77.5524H114.784V75.64C115.967 75.1987 117.108 74.8555 118.206 74.6103C119.347 74.3161 120.466 74.0955 121.564 73.9484L122.135 33.5692L114.784 31.9511V29.8916H147.671Z" fill="#A08868"/>
<path d="M100.029 161.446C99.7959 161.446 99.5627 161.175 99.5627 160.904C99.5627 160.633 99.7376 160.429 99.9708 160.429C100.321 160.362 133.964 157.922 159.386 129.39C184.749 100.857 183.35 59.4484 183.35 59.0418C183.292 58.7707 183.525 58.4996 183.758 58.4996C183.991 58.4996 184.166 58.7029 184.225 58.974C184.225 59.4484 185.682 101.264 159.969 130.067C134.314 158.938 100.379 161.378 100.029 161.446Z" fill="#A08868"/>
<path fill-rule="evenodd" clip-rule="evenodd" d="M183.933 59.6517L183.583 59.4484C183.525 59.4484 175.887 54.8399 176.236 43.4541C176.47 37.829 176.82 34.0338 177.169 30.984C177.461 28.0698 177.694 26.0366 177.519 24.0035L177.403 22.7835L178.219 23.529C184.458 29.6963 192.038 47.4527 184.166 59.3129L183.933 59.6517ZM178.394 25.1556C178.452 26.9177 178.277 28.7475 177.986 31.0518C177.694 34.1015 177.286 37.8968 177.111 43.5219C176.82 52.9423 182.3 57.4152 183.641 58.364C190.522 47.4527 184.225 31.6617 178.394 25.1556Z" fill="#A08868"/>
<path d="M184.225 62.9726H183.35C183.35 62.7015 183.35 36.948 177.578 24.2068L178.336 23.7324C184.225 36.7447 184.225 61.8882 184.225 62.9726Z" fill="#A08868"/>
<path fill-rule="evenodd" clip-rule="evenodd" d="M177.752 86.964L177.403 86.8285C177.286 86.8285 169.24 83.3721 168.365 72.0541C167.957 66.3612 167.957 62.5659 167.899 59.5162C167.899 56.602 167.899 54.501 167.49 52.5356L167.315 51.3157L168.19 51.9934C175.07 57.2119 184.458 73.6806 177.927 86.6251L177.752 86.964ZM168.598 53.5522C168.773 55.2465 168.773 57.0764 168.773 59.4484C168.831 62.4982 168.831 66.2934 169.24 71.9185C169.939 81.2711 175.887 84.9308 177.344 85.7441C183 73.8839 175.012 59.1096 168.598 53.5522Z" fill="#A08868"/>
<path d="M178.277 95.91C178.044 95.91 177.869 95.7067 177.869 95.4356C177.869 95.1645 176.586 66.8356 167.607 52.739C167.432 52.5356 167.49 52.1968 167.665 51.9935C167.899 51.8579 168.132 51.9257 168.307 52.129C177.461 66.4967 178.744 95.0967 178.744 95.4356C178.744 95.7067 178.569 95.91 178.336 95.91C178.336 95.91 178.316 95.91 178.277 95.91Z" fill="#A08868"/>
<path fill-rule="evenodd" clip-rule="evenodd" d="M184.983 82.4232L184.866 82.0166C184.808 81.9489 181.193 72.8673 187.548 64.1247C190.697 59.855 192.971 57.1442 194.836 54.9077C196.586 52.8745 197.868 51.3835 198.801 49.6892L199.384 48.6726L199.618 49.8925C201.25 59.1773 197.868 78.5602 185.332 82.2877L184.983 82.4232ZM198.918 51.3157C198.043 52.6712 196.935 54.0266 195.478 55.6531C193.612 57.8219 191.338 60.5328 188.189 64.8024C182.942 72.0541 184.924 79.509 185.507 81.2034C196.644 77.5436 200.084 60.6005 198.918 51.3157Z" fill="#A08868"/>
<path d="M180.26 89.336C180.143 89.336 180.046 89.2908 179.968 89.2005C179.793 88.9972 179.793 88.7261 179.968 88.5228C180.085 88.2517 196.469 67.31 198.743 49.8925C198.801 49.6214 198.976 49.4181 199.268 49.4859C199.501 49.4859 199.676 49.757 199.618 50.028C197.285 67.7166 180.726 88.9972 180.609 89.2005C180.493 89.2908 180.376 89.336 180.26 89.336Z" fill="#A08868"/>
<path fill-rule="evenodd" clip-rule="evenodd" d="M167.257 113.327L166.966 113.056C166.849 112.989 159.852 107.228 161.543 96.0455C162.418 90.4882 163.234 86.7607 163.934 83.7787C164.575 81 165.042 78.9669 165.1 76.9337L165.158 75.7138L165.858 76.6626C171.339 83.7787 176.703 102.484 167.49 112.989L167.257 113.327ZM165.916 78.2891C165.741 80.0512 165.333 81.8133 164.808 84.1176C164.109 87.0318 163.292 90.7593 162.476 96.2488C161.018 105.534 165.916 110.82 167.199 112.04C175.245 102.348 170.872 85.6763 165.916 78.2891Z" fill="#A08868"/>
<path d="M165.916 122.138C165.877 122.138 165.838 122.138 165.8 122.138C165.566 122.07 165.45 121.799 165.508 121.528C165.508 121.257 170.697 93.5379 165.158 77.137C165.042 76.9337 165.158 76.5948 165.391 76.5271C165.625 76.3915 165.858 76.527 165.974 76.7981C171.572 93.4701 166.383 121.46 166.324 121.731C166.266 122.002 166.091 122.138 165.916 122.138Z" fill="#A08868"/>
<path fill-rule="evenodd" clip-rule="evenodd" d="M176.645 110.888C176.489 110.888 176.353 110.888 176.236 110.888H175.887L175.828 110.481C175.77 110.345 174.487 100.518 182.592 94.1479C186.615 90.9626 189.53 89.0649 191.804 87.574C193.962 86.1507 195.536 85.1341 196.877 83.8465L197.635 82.9654L197.577 84.2531C196.994 93.6057 189.297 110.888 176.645 110.888ZM176.645 109.871C188.248 109.871 195.478 94.6223 196.586 85.3375C195.419 86.4218 194.02 87.3029 192.213 88.455C189.939 89.946 187.082 91.8436 183.117 94.9611C176.353 100.247 176.47 107.973 176.645 109.871Z" fill="#A08868"/>
<path d="M169.823 116.038C169.648 116.038 169.531 115.971 169.415 115.835C169.298 115.564 169.356 115.293 169.589 115.157C169.764 114.954 190.463 99.9763 196.761 83.982C196.819 83.7109 197.11 83.6432 197.344 83.7109C197.519 83.8465 197.635 84.1176 197.519 84.3887C191.163 100.722 170.231 115.835 170.056 115.971C169.978 116.016 169.9 116.038 169.823 116.038Z" fill="#A08868"/>
<path fill-rule="evenodd" clip-rule="evenodd" d="M149.415 134.947L149.24 134.608C149.182 134.54 144.168 126.34 149.007 116.445C151.398 111.498 153.263 108.38 154.721 105.805C156.121 103.433 157.17 101.671 157.811 99.8408L158.22 98.6886L158.628 99.8408C161.718 108.651 161.426 128.373 149.765 134.744L149.415 134.947ZM158.161 101.4C157.462 102.891 156.587 104.449 155.421 106.415C153.963 108.922 152.156 112.108 149.765 116.987C145.742 125.188 148.832 132.033 149.707 133.659C160.085 127.627 160.727 110.21 158.161 101.4Z" fill="#A08868"/>
<path d="M145.8 142.808C145.722 142.808 145.645 142.763 145.567 142.673C145.392 142.537 145.275 142.266 145.45 141.995C145.567 141.792 158.336 117.597 157.753 100.044C157.753 99.773 157.928 99.5019 158.22 99.5019C158.453 99.5019 158.628 99.7052 158.628 99.9763C159.211 117.868 146.325 142.266 146.15 142.537C146.092 142.673 145.917 142.808 145.8 142.808Z" fill="#A08868"/>
<path fill-rule="evenodd" clip-rule="evenodd" d="M166.907 135.015C165.042 135.015 163.117 134.676 161.252 133.795L160.902 133.659L160.96 133.253C160.96 133.185 162.534 123.29 172.038 120.444C176.761 119.02 179.968 118.41 182.592 117.868C185.041 117.326 186.79 116.987 188.423 116.242L189.414 115.767L189.006 116.919C186.207 124.307 176.994 135.015 166.907 135.015ZM161.893 133.049C172.855 137.522 184.05 125.933 187.723 117.597C186.324 118.139 184.749 118.478 182.709 118.885C180.143 119.359 176.936 120.037 172.272 121.46C164.4 123.832 162.301 131.219 161.893 133.049Z" fill="#A08868"/>
<path d="M153.847 136.235C153.613 136.235 153.438 136.099 153.38 135.828C153.38 135.557 153.497 135.286 153.73 135.218C153.963 135.15 177.811 129.051 188.248 116.377C188.423 116.174 188.714 116.174 188.889 116.309C189.064 116.513 189.064 116.852 188.889 117.055C178.219 129.932 154.196 136.167 153.905 136.235C153.905 136.235 153.885 136.235 153.847 136.235Z" fill="#A08868"/>
<path fill-rule="evenodd" clip-rule="evenodd" d="M129.766 148.23L129.649 147.824C129.591 147.688 126.384 138.471 133.089 130.067C136.413 125.933 138.803 123.358 140.786 121.325C142.593 119.359 143.934 117.936 144.926 116.309L145.567 115.293L145.742 116.513C147.025 125.933 142.768 145.045 130.116 148.095L129.766 148.23ZM144.984 117.936C144.051 119.291 142.885 120.511 141.369 122.138C139.445 124.171 136.996 126.746 133.731 130.813C128.191 137.726 129.824 145.316 130.349 147.078C141.66 144.028 145.742 127.221 144.984 117.936Z" fill="#A08868"/>
<path d="M124.81 154.872C124.693 154.872 124.576 154.827 124.46 154.736C124.285 154.533 124.285 154.194 124.46 153.991C124.635 153.788 141.894 133.727 144.867 116.513C144.926 116.242 145.159 116.038 145.392 116.106C145.625 116.174 145.742 116.445 145.742 116.716C142.71 134.269 125.276 154.533 125.101 154.736C125.023 154.827 124.926 154.872 124.81 154.872Z" fill="#A08868"/>
<path fill-rule="evenodd" clip-rule="evenodd" d="M152.097 155.075C148.366 155.075 144.634 153.855 141.427 150.941L141.194 150.67L141.311 150.263C141.369 150.196 145.45 141.385 155.246 141.995C160.085 142.334 163.351 142.808 165.974 143.283C168.423 143.622 170.231 143.961 171.98 143.757L173.03 143.69L172.33 144.638C168.598 149.518 160.26 155.075 152.097 155.075ZM142.302 150.399C151.573 158.532 165.275 151.483 170.931 144.842C169.473 144.842 167.899 144.571 165.858 144.299C163.234 143.825 160.027 143.351 155.188 143.012C147.141 142.537 143.176 148.772 142.302 150.399Z" fill="#A08868"/>
<path d="M142.768 151.009C137.579 151.009 133.964 150.67 133.847 150.67C133.614 150.602 133.439 150.331 133.439 150.06C133.497 149.789 133.672 149.586 133.964 149.653C134.197 149.653 158.453 152.229 171.805 143.825C171.98 143.689 172.272 143.825 172.388 144.028C172.505 144.299 172.388 144.571 172.213 144.706C163.817 149.992 151.164 151.009 142.768 151.009Z" fill="#A08868"/>
<path d="M100.029 161.446C99.9903 161.446 99.9708 161.446 99.9708 161.446C99.621 161.378 65.6863 158.938 40.0312 130.067C14.3178 101.264 15.7755 59.4484 15.7755 58.974C15.8338 58.7029 16.0087 58.4996 16.2419 58.4996C16.4751 58.4996 16.7084 58.7707 16.6501 59.0418C16.6501 59.4484 15.2507 100.857 40.6143 129.39C66.0361 157.922 99.6793 160.362 100.029 160.429C100.262 160.429 100.437 160.633 100.437 160.904C100.437 161.175 100.204 161.446 100.029 161.446Z" fill="#A08868"/>
<path fill-rule="evenodd" clip-rule="evenodd" d="M16.067 59.6517L15.8338 59.3129C7.96231 47.4527 15.5422 29.6963 21.7811 23.529L22.5974 22.7835L22.4808 24.0035C22.3058 26.0366 22.5391 28.0698 22.8306 30.984C23.1804 34.0338 23.5303 37.829 23.7635 43.4541C24.1134 54.8399 16.4751 59.4484 16.4168 59.4484L16.067 59.6517ZM21.5478 25.1556C15.7755 31.6617 9.41998 47.4527 16.3002 58.364C17.6996 57.4152 23.1804 52.9423 22.8306 43.5219C22.6557 37.8968 22.2475 34.1015 21.956 31.1196C21.7228 28.7475 21.4895 26.9177 21.5478 25.1556Z" fill="#A08868"/>
<path d="M15.7755 62.9726C15.7755 61.8882 15.7755 36.7447 21.6645 23.7324L22.4225 24.2068C16.6501 36.948 16.6501 62.7015 16.6501 62.9726H15.7755Z" fill="#A08868"/>
<path fill-rule="evenodd" clip-rule="evenodd" d="M22.2475 86.964L22.0726 86.6251C15.5422 73.6806 24.9297 57.2119 31.8099 51.9934L32.7428 51.3157L32.5096 52.5356C32.1014 54.501 32.1014 56.602 32.1014 59.5162C32.0431 62.5659 32.0431 66.3612 31.635 72.0541C30.7604 83.3721 22.714 86.8285 22.5974 86.8285L22.2475 86.964ZM31.4018 53.5522C24.988 59.1773 16.9999 73.9517 22.6557 85.7441C24.1134 84.9308 30.0607 81.3389 30.7604 71.9185C31.1685 66.3612 31.1685 62.5659 31.2268 59.5162C31.2268 57.1441 31.2268 55.2465 31.4018 53.5522Z" fill="#A08868"/>
<path d="M21.7228 95.91C21.6839 95.91 21.6645 95.91 21.6645 95.91C21.4312 95.91 21.2563 95.7067 21.2563 95.4356C21.2563 95.0967 22.5391 66.4967 31.6933 52.129C31.8682 51.9257 32.1014 51.8579 32.3347 51.9935C32.5096 52.1968 32.5679 52.5356 32.393 52.739C23.4137 66.8356 22.1309 95.1645 22.1309 95.4356C22.1309 95.7067 21.956 95.91 21.7228 95.91Z" fill="#A08868"/>
<path fill-rule="evenodd" clip-rule="evenodd" d="M15.0175 82.4232L14.6676 82.2877C2.1316 78.5602 -1.25021 59.1773 0.382389 49.8925L0.615622 48.6726L1.19869 49.6892C2.13161 51.3835 3.41436 52.8745 5.16357 54.9077C7.0294 57.1442 9.30338 59.855 12.452 64.1247C18.8074 72.8673 15.1924 81.9489 15.1341 82.0166L15.0175 82.4232ZM1.08208 51.3157C-0.0257536 60.5328 3.35605 77.5436 14.551 81.2034C15.1341 79.4413 17.0582 72.0541 11.8689 64.8024C8.7203 60.5328 6.44633 57.8219 4.5805 55.6531C3.12283 54.0266 2.01499 52.6712 1.08208 51.3157Z" fill="#A08868"/>
<path d="M19.7403 89.336C19.6237 89.336 19.5071 89.2908 19.3905 89.2005C19.2739 88.9972 2.71467 67.7166 0.382392 50.028C0.324085 49.757 0.49901 49.4859 0.732238 49.4859C1.02377 49.4181 1.19869 49.6214 1.257 49.8925C3.53097 67.31 19.9153 88.2517 20.0902 88.5228C20.2068 88.7261 20.2068 88.9972 20.0319 89.2005C19.9541 89.2908 19.857 89.336 19.7403 89.336Z" fill="#A08868"/>
<path fill-rule="evenodd" clip-rule="evenodd" d="M32.7428 113.327L32.5096 112.989C23.2971 102.484 28.6613 83.7787 34.1422 76.6626L34.8419 75.7138L34.9002 76.9337C34.9585 78.9669 35.4249 81 36.0663 83.7787C36.766 86.7607 37.5823 90.4882 38.4569 96.0455C40.1478 107.228 33.151 112.989 33.0343 113.056L32.7428 113.327ZM34.1422 78.2891C29.1278 85.6763 24.7547 102.348 32.8594 112.04C34.1422 110.82 38.9817 105.534 37.5823 96.2488C36.7077 90.6915 35.8914 87.0318 35.25 84.1176C34.7252 81.8133 34.3171 79.9835 34.1422 78.2891Z" fill="#A08868"/>
<path d="M34.0839 122.138C33.909 122.138 33.734 122.002 33.6757 121.731C33.6174 121.46 28.4281 93.4701 34.0256 76.7981C34.1422 76.527 34.3754 76.3915 34.6086 76.5271C34.8419 76.5948 34.9585 76.9337 34.8419 77.137C29.3027 93.5379 34.492 121.257 34.492 121.528C34.5503 121.799 34.4337 122.07 34.2005 122.138C34.1616 122.138 34.1227 122.138 34.0839 122.138Z" fill="#A08868"/>
<path fill-rule="evenodd" clip-rule="evenodd" d="M23.3554 110.888C10.7027 110.888 3.00621 93.6057 2.42314 84.2531L2.36484 82.9654L3.12283 83.8465C4.46389 85.1341 6.03818 86.1507 8.19554 87.574C10.4695 89.0649 13.3849 90.9626 17.4081 94.1479C25.5127 100.518 24.23 110.345 24.1717 110.481L24.1134 110.888H23.7635C23.6469 110.888 23.5109 110.888 23.3554 110.888ZM3.41436 85.3375C4.5222 94.6223 11.7523 109.871 23.3554 109.871C23.5303 107.973 23.6469 100.247 16.8833 94.9611C12.9184 91.8436 10.0614 89.946 7.78739 88.455C5.97988 87.3029 4.58051 86.4218 3.41436 85.3375Z" fill="#A08868"/>
<path d="M30.1773 116.038C30.0996 116.038 30.0218 116.016 29.9441 115.971C29.7692 115.835 8.83692 100.722 2.48145 84.3887C2.36483 84.1176 2.48145 83.8465 2.65637 83.7109C2.8896 83.6432 3.18114 83.7109 3.23944 83.982C9.5366 99.9763 30.2356 114.954 30.4105 115.157C30.6438 115.293 30.7021 115.564 30.5854 115.835C30.4688 115.971 30.3522 116.038 30.1773 116.038Z" fill="#A08868"/>
<path fill-rule="evenodd" clip-rule="evenodd" d="M50.5848 134.947L50.2349 134.744C38.5735 128.373 38.282 108.651 41.3722 99.8408L41.7804 98.6886L42.1886 99.8408C42.8299 101.671 43.8795 103.433 45.2788 105.805C46.7365 108.38 48.6023 111.498 50.9929 116.445C55.8324 126.34 50.818 134.54 50.7597 134.608L50.5848 134.947ZM41.8387 101.332C39.2732 110.21 39.9146 127.627 50.2932 133.659C51.1678 132.033 54.2581 125.12 50.2349 116.919C47.9026 112.04 46.0368 108.922 44.5791 106.415C43.413 104.449 42.5384 102.891 41.8387 101.332Z" fill="#A08868"/>
<path d="M54.1998 142.808C54.0832 142.808 53.9083 142.673 53.85 142.537C53.675 142.266 40.7892 117.868 41.3722 99.9763C41.3722 99.7052 41.5472 99.5019 41.7804 99.5019C42.0719 99.5019 42.2468 99.773 42.2468 100.044C41.6638 117.597 54.433 141.792 54.5496 141.995C54.7246 142.266 54.6663 142.537 54.433 142.673C54.3553 142.763 54.2775 142.808 54.1998 142.808Z" fill="#A08868"/>
<path fill-rule="evenodd" clip-rule="evenodd" d="M33.0927 135.015C23.0055 135.015 13.793 124.307 10.9943 116.919L10.5861 115.767L11.5774 116.242C13.2099 116.987 14.9592 117.326 17.4081 117.868C20.0319 118.41 23.2388 119.02 27.9616 120.444C37.4657 123.29 39.04 133.185 39.04 133.253L39.0983 133.659L38.7484 133.795C36.8826 134.676 34.9585 135.015 33.0927 135.015ZM12.277 117.597C15.9504 125.933 27.1453 137.522 38.1071 133.049C37.6989 131.219 35.5999 123.832 27.7284 121.46C23.0638 120.037 19.8569 119.359 17.2914 118.885C15.2507 118.478 13.6764 118.139 12.277 117.597Z" fill="#A08868"/>
<path d="M46.1534 136.235C46.1146 136.235 46.0951 136.235 46.0951 136.235C45.8036 136.167 21.7811 129.932 11.1109 117.055C10.936 116.852 10.936 116.513 11.1109 116.309C11.2858 116.174 11.5773 116.174 11.7523 116.377C22.2475 129.051 46.0368 135.15 46.27 135.218C46.5033 135.286 46.6199 135.557 46.6199 135.828C46.5616 136.099 46.3867 136.235 46.1534 136.235Z" fill="#A08868"/>
<path fill-rule="evenodd" clip-rule="evenodd" d="M70.2342 148.23L69.8844 148.095C57.2318 145.045 52.9754 125.933 54.2581 116.513L54.433 115.293L55.0744 116.309C56.0656 117.936 57.4067 119.359 59.2142 121.325C61.1967 123.358 63.6455 125.933 66.9107 130.067C73.6161 138.471 70.4092 147.688 70.3509 147.824L70.2342 148.23ZM55.0161 117.868C54.3164 127.221 58.3979 143.961 69.7095 147.078C70.1759 145.248 71.8085 137.726 66.3277 130.813C63.0042 126.679 60.6136 124.103 58.6894 122.07C57.1735 120.444 56.0073 119.224 55.0161 117.868Z" fill="#A08868"/>
<path d="M75.1904 154.872C75.0737 154.872 74.9766 154.827 74.8988 154.736C74.7239 154.533 57.2901 134.269 54.2581 116.716C54.2581 116.445 54.3747 116.174 54.608 116.106C54.8412 116.038 55.0744 116.242 55.1327 116.513C58.1064 133.727 75.3653 153.788 75.5402 153.991C75.7151 154.194 75.7151 154.533 75.5402 154.736C75.4236 154.827 75.307 154.872 75.1904 154.872Z" fill="#A08868"/>
<path fill-rule="evenodd" clip-rule="evenodd" d="M47.9026 155.075C39.7397 155.075 31.4017 149.518 27.6701 144.638L26.9704 143.69L28.0199 143.757C29.7692 143.961 31.5767 143.622 34.0256 143.283C36.6494 142.808 39.9146 142.334 44.7541 141.995C54.5496 141.385 58.6311 150.196 58.6894 150.263L58.8061 150.67L58.5728 150.941C55.3659 153.855 51.6343 155.075 47.9026 155.075ZM29.0695 144.842C34.7253 151.483 48.4274 158.532 57.6982 150.399C56.8236 148.772 52.9171 142.537 44.8124 143.012C39.9729 143.351 36.766 143.825 34.1422 144.299C32.1014 144.571 30.5271 144.842 29.0695 144.842Z" fill="#A08868"/>
<path d="M57.2901 151.009C48.8356 151.009 36.1829 149.992 27.7867 144.706C27.6118 144.571 27.4952 144.299 27.6118 144.028C27.7284 143.825 28.0199 143.689 28.1949 143.825C41.5472 152.229 65.8029 149.653 66.0361 149.653C66.3277 149.586 66.5026 149.789 66.5609 150.06C66.5609 150.331 66.386 150.602 66.1527 150.67C66.0361 150.67 62.4211 151.009 57.2901 151.009Z" fill="#A08868"/>
<path d="M100.029 105.601C99.7376 105.601 99.5627 105.398 99.5627 105.127V1.09638C99.5627 0.825291 99.7376 0.554199 100.029 0.554199C100.262 0.554199 100.437 0.825291 100.437 1.09638V105.127C100.437 105.398 100.262 105.601 100.029 105.601Z" fill="#A08868"/>
</svg>
