<svg width="60" height="45" viewBox="0 0 60 45" fill="none" xmlns="http://www.w3.org/2000/svg">
<path d="M58.5814 17.8515L42.0129 11.5988L35.0871 2.46826C34.4849 1.69517 33.7264 1.07256 32.8665 0.64563C32.0065 0.218699 31.0669 -0.00184286 30.1157 1.15988e-05H12.9814C11.9336 3.05277e-05 10.9016 0.269001 9.97537 0.783506C9.04915 1.29801 8.25674 2.04245 7.66714 2.95201L1.85571 11.9138C0.646779 13.7796 0.00020636 15.9841 0 18.2408V36C0 36.5967 0.225765 37.169 0.627628 37.591C1.02949 38.013 1.57454 38.25 2.14286 38.25H6.73286C7.199 40.181 8.26506 41.8937 9.76238 43.1171C11.2597 44.3405 13.1028 45.0048 15 45.0048C16.8972 45.0048 18.7403 44.3405 20.2376 43.1171C21.7349 41.8937 22.801 40.181 23.2671 38.25H36.7329C37.199 40.181 38.2651 41.8937 39.7624 43.1171C41.2597 44.3405 43.1028 45.0048 45 45.0048C46.8972 45.0048 48.7403 44.3405 50.2376 43.1171C51.7349 41.8937 52.801 40.181 53.2671 38.25H57.8571C58.4255 38.25 58.9705 38.013 59.3724 37.591C59.7742 37.169 60 36.5967 60 36V19.9688C59.9999 19.5054 59.8636 19.0534 59.6097 18.6745C59.3558 18.2955 58.9967 18.0081 58.5814 17.8515ZM15 40.5C14.1524 40.5 13.3238 40.2361 12.619 39.7416C11.9142 39.2472 11.3649 38.5444 11.0405 37.7221C10.7161 36.8998 10.6313 35.995 10.7966 35.1221C10.962 34.2492 11.3702 33.4474 11.9695 32.818C12.5689 32.1887 13.3326 31.7601 14.1639 31.5865C14.9952 31.4128 15.857 31.502 16.6401 31.8426C17.4232 32.1831 18.0925 32.7599 18.5634 33.4999C19.0344 34.24 19.2857 35.11 19.2857 36C19.284 37.1929 18.8319 38.3365 18.0286 39.18C17.2252 40.0235 16.1361 40.4982 15 40.5ZM45 40.5C44.1524 40.5 43.3238 40.2361 42.619 39.7416C41.9142 39.2472 41.3649 38.5444 41.0405 37.7221C40.7161 36.8998 40.6313 35.995 40.7966 35.1221C40.962 34.2492 41.3702 33.4474 41.9695 32.818C42.5689 32.1887 43.3326 31.7601 44.1639 31.5865C44.9952 31.4128 45.857 31.502 46.6401 31.8426C47.4232 32.1831 48.0925 32.7599 48.5634 33.4999C49.0344 34.24 49.2857 35.11 49.2857 36C49.284 37.1929 48.8319 38.3365 48.0286 39.18C47.2252 40.0235 46.1361 40.4982 45 40.5ZM55.7143 33.75H53.2671C52.801 31.819 51.7349 30.1063 50.2376 28.8829C48.7403 27.6595 46.8972 26.9952 45 26.9952C43.1028 26.9952 41.2597 27.6595 39.7624 28.8829C38.2651 30.1063 37.199 31.819 36.7329 33.75H23.2671C22.801 31.819 21.7349 30.1063 20.2376 28.8829C18.7403 27.6595 16.8972 26.9952 15 26.9952C13.1028 26.9952 11.2597 27.6595 9.76238 28.8829C8.26506 30.1063 7.199 31.819 6.73286 33.75H4.28571V18.2408C4.28575 16.886 4.67401 15.5627 5.4 14.4428L11.2093 5.48551C11.4057 5.18194 11.6699 4.93344 11.9788 4.76166C12.2877 4.58989 12.6319 4.50006 12.9814 4.50001H30.1157C30.4275 4.50007 30.7355 4.57158 31.0183 4.70953C31.3011 4.84749 31.5517 5.04858 31.7529 5.29876L39.0386 14.9018C39.2863 15.2283 39.6158 15.4761 39.99 15.6173L55.7143 21.5505V33.75Z" fill="#333333"/>
</svg>
